# xmcd
#
# Track frame offsets:
#	150
#	18327
#	47180
#	66163
#	81102
#	99603
#	119101
#	141856
#	162736
#	179491
#	195220
#	213226
#	229796
#
# Disc length: 3266 seconds
#
# Revision: 0
# Processed by: cddbd v1.5.2PL0 Copyright (c) Steve Scherf et al.
# Submitted via: EasyCDDAExtractor 12.0.7.1
#
DISCID=ba0cc00d
DTITLE=คาราบาว - คาราบาว กับ พันธมิตรเพื่อชีวิต
DYEAR=1900
DGENRE=
TTITLE0=คนไทยหรือเปล่า
TTITLE1=หัวใจสะออน
TTITLE2=ข้องจิต
TTITLE3=อับดุลเลาะห์
TTITLE4=ม้งลงแดง
TTITLE5=ปะการัง
TTITLE6=อาซีซะห์ลองกอง
TTITLE7=เพียงเธอผู้เดียว
TTITLE8=ฉันเป็นดอกไม้
TTITLE9=คนกับหมา
TTITLE10=ไอ้หิน
TTITLE11=น้ำตายาดอง
TTITLE12=รำวงลูกหนี้
EXTD=
EXTT0=
EXTT1=
EXTT2=
EXTT3=
EXTT4=
EXTT5=
EXTT6=
EXTT7=
EXTT8=
EXTT9=
EXTT10=
EXTT11=
EXTT12=
PLAYORDER=
